<svg xmlns="http://www.w3.org/2000/svg" width="17.969" height="20" viewBox="0 0 17.969 20">
  <metadata><?xpacket begin="﻿" id="W5M0MpCehiHzreSzNTczkc9d"?>
<x:xmpmeta xmlns:x="adobe:ns:meta/" x:xmptk="Adobe XMP Core 5.6-c138 79.159824, 2016/09/14-01:09:01        ">
   <rdf:RDF xmlns:rdf="http://www.w3.org/1999/02/22-rdf-syntax-ns#">
      <rdf:Description rdf:about=""/>
   </rdf:RDF>
</x:xmpmeta>
                                                                                                    
                                                                                                    
                                                                                                    
                                                                                                    
                                                                                                    
                                                                                                    
                                                                                                    
                                                                                                    
                                                                                                    
                                                                                                    
                                                                                                    
                                                                                                    
                                                                                                    
                                                                                                    
                                                                                                    
                                                                                                    
                                                                                                    
                                                                                                    
                                                                                                    
                                                                                                    
                           
<?xpacket end="w"?></metadata>
<defs>
    <style>
      .cls-1 {
        fill: #fff;
        fill-rule: evenodd;
      }
    </style>
  </defs>
  <path class="cls-1" d="M291.132,29.452a1.377,1.377,0,0,0-2.01,0l-1.132,1.224a9.362,9.362,0,0,1-2.316-1.76,10.214,10.214,0,0,1-1.627-2.505l1.131-1.223a1.628,1.628,0,0,0,0-2.174L282.7,20.33a1.349,1.349,0,0,0-2.011,0l-1.867,2.02a2.43,2.43,0,0,0-.494,2.413,21.4,21.4,0,0,0,4.346,7.4,19.294,19.294,0,0,0,6.842,4.7,1.947,1.947,0,0,0,.726.141,2.054,2.054,0,0,0,1.5-.674l1.868-2.02a1.629,1.629,0,0,0,0-2.174Zm-0.405,5.776a0.634,0.634,0,0,1-.713.174,17.834,17.834,0,0,1-6.324-4.34,19.789,19.789,0,0,1-4.014-6.839,0.769,0.769,0,0,1,.161-0.771l1.843-2.02,2.468,2.669-1.816,1.963,0.183,0.48a12.114,12.114,0,0,0,2.141,3.473,10.971,10.971,0,0,0,3.212,2.316l0.444,0.2,1.8-1.977,2.481,2.655ZM292.59,19.88h-2.581l1.65-1.785-1.018-1.1-3.388,3.664,3.388,3.664,1.018-1.1-1.65-1.785h2.581a2.342,2.342,0,0,1,0,4.67h-0.72v1.557h0.72a3.758,3.758,0,0,0,3.6-3.892A3.758,3.758,0,0,0,292.59,19.88Z" transform="translate(-278.219 -17)"/>
</svg>
